<svg width="45" height="46" viewBox="0 0 45 46" fill="none" xmlns="http://www.w3.org/2000/svg">
<g clip-path="url(#clip0_176_429)">
<path d="M44.6884 0V22.4999C44.6858 27.494 43.0308 32.3469 39.9815 36.302C36.9323 40.2572 32.6601 43.0923 27.831 44.3654C23.0019 45.6385 17.8872 45.2781 13.2844 43.3403C8.68155 41.4025 4.8492 37.9962 2.38477 33.6525C5.9028 34.3044 9.49863 34.4257 13.0526 34.0122C21.5093 33.0318 29.3396 29.0691 35.1377 22.8354C40.9359 16.6018 44.3221 8.50545 44.6884 0" fill="#059991"/>
<path d="M44.688 0C43.3682 8.42842 39.0815 16.1083 32.6003 21.6558C26.1191 27.2033 17.8697 30.2535 9.33858 30.2569C6.52822 30.2606 3.72721 29.9332 0.993485 29.2813C0.331805 27.124 -0.00306353 24.8797 2.11173e-05 22.6231V0H44.688Z" fill="#004870"/>
<path d="M13.0466 34.0104C9.49464 34.4233 5.90085 34.3021 2.38477 33.6508C4.41092 37.2256 7.37222 40.1813 10.9509 42.2006C14.5296 44.22 18.5906 45.2268 22.6981 45.1131C26.8056 44.9993 30.8046 43.7693 34.2661 41.5549C37.7275 39.3406 40.5207 36.2256 42.3459 32.5441C37.0166 32.4714 31.7443 31.4375 26.7823 29.4922C22.562 31.9195 17.8895 33.4572 13.0526 34.0104" fill="#49C1BF"/>
<path d="M0.794792 0H2.11173e-05V22.6231C-0.00306353 24.8797 0.331805 27.124 0.993485 29.2813C3.72721 29.9332 6.52822 30.2606 9.33858 30.2569C13.9977 30.2625 18.6129 29.3552 22.9232 27.5865C17.5336 24.7511 12.7833 20.8399 8.9661 16.0949C5.14892 11.3498 2.34614 5.87184 0.731211 0" fill="#00AEEF"/>
</g>
<defs>
<clipPath id="clip0_176_429">
<rect width="44.688" height="45.1231" fill="white"/>
</clipPath>
</defs>
</svg>
